  0
SECTION
  2
HEADER
  9
$ACADVER
  1
AC1009
  0
ENDSEC
  0
SECTION
  2
ENTITIES
  0
LINE
  8
WALLS
 10
0.0
 20
0.0
 11
30.0
 21
0.0
  0
LINE
  8
WALLS
 10
30.0
 20
0.0
 11
30.0
 21
20.0
  0
LINE
  8
WALLS
 10
30.0
 20
20.0
 11
17.0
 21
20.0
  0
LINE
  8
WALLS
 10
13.0
 20
20.0
 11
0.0
 21
20.0
  0
LINE
  8
WALLS
 10
0.0
 20
20.0
 11
0.0
 21
0.0
  0
LINE
  8
WALLS
 10
10.0
 20
6.0
 11
10.0
 21
14.0
  0
LINE
  8
WALLS
 10
20.0
 20
6.0
 11
20.0
 21
14.0
  0
LINE
  8
WALLS
 10
6.0
 20
12.0
 11
10.0
 21
12.0
  0
LINE
  8
WALLS
 10
20.0
 20
12.0
 11
24.0
 21
12.0
  0
LINE
  8
EXIT
 10
13.0
 20
20.0
 11
13.0
 21
22.0
  0
LINE
  8
EXIT
 10
17.0
 20
20.0
 11
17.0
 21
22.0
  0
LINE
  8
EXIT
 10
13.0
 20
22.0
 11
17.0
 21
22.0
  0
TEXT
  8
LABELS
 10
14.5
 20
21.0
 40
0.5
  1
EXIT
  0
ENDSEC
  0
EOF
